<?xml version="1.0" encoding="utf-8"?>
<!-- Generator: Adobe Illustrator 23.0.5, SVG Export Plug-In . SVG Version: 6.00 Build 0)  -->
<svg version="1.1" id="Capa_1" xmlns="http://www.w3.org/2000/svg" xmlns:xlink="http://www.w3.org/1999/xlink" x="0px" y="0px"
	 viewBox="0 0 595.28 841.89" style="enable-background:new 0 0 595.28 841.89;" xml:space="preserve">
<style type="text/css">
	.st0{fill:#FF5722;}
	.st1{fill:#FFFFFF;}
</style>
<g>
	<g>
		<g>
			<path d="M265.93,153.79c78.33,1.54,140.55,33.62,183.63,99.58c28.46,43.58,38.7,92.13,31.43,143.76
				c-8.53,60.6-37.66,109.32-87.18,145.46c-26.77,19.54-56.78,31.75-89.49,37.16c-41.15,6.8-80.95,2-119.46-14.01
				c-1.47-0.61-3.74-0.19-5.3,0.49c-25.25,11.03-50.45,22.19-75.66,33.3c-1.42,0.63-2.84,1.37-4.34,1.66
				c-8.12,1.56-13.57-3.8-12.34-12.07c0.94-6.28,1.97-12.55,2.97-18.83c3.48-21.78,7.03-43.55,10.33-65.36
				c0.28-1.85-0.5-4.31-1.64-5.86c-18.21-24.73-31.42-51.77-38.52-81.73c-7.31-30.87-6.99-61.77-1-92.78
				c14.27-74.02,71.93-140.55,151.77-162.69C228.68,157.02,247.58,154.25,265.93,153.79z M109.32,575.27
				c1.7-0.68,2.81-1.09,3.89-1.56c21.05-9.27,42.13-18.47,63.11-27.88c4.52-2.03,8.51-1.99,13.04,0.01
				c40.76,17.98,82.94,22.07,126.15,11.24c54.47-13.65,95.55-45.4,123.37-94.08c17.66-30.9,25.33-64.53,24.75-99.93
				c-0.18-10.83-1.87-21.74-3.9-32.42c-5.92-31.15-18.59-59.49-38.6-84.09c-34.91-42.93-80.1-67.3-135.31-72.49
				c-30.61-2.87-60.37,1.35-88.83,12.97c-49.7,20.29-85.76,54.82-107,104.37c-14.78,34.48-19.15,70.36-13.33,107.35
				c5.44,34.6,19.41,65.54,41.54,92.72c2.46,3.02,3.38,6.26,2.78,10.02c-2.98,18.69-5.96,37.38-8.92,56.08
				C111.16,563.31,110.29,569.05,109.32,575.27z"/>
			<path d="M532.7,357.7c-0.36,47.43-10.43,87.96-30.68,125.93c-2.61,4.9-6.05,6.86-10.66,6.2c-4.07-0.58-7.43-3.5-7.83-7.74
				c-0.22-2.34,0.33-5.09,1.43-7.17c14.13-26.67,23.24-54.93,26.73-84.9c4.77-40.95-0.57-80.6-16.04-118.85
				c-9.61-23.77-22.85-45.34-39.4-64.9c-4.05-4.79-4.33-9.59-0.85-13.64c3.95-4.6,10.94-4.59,14.99,0.69
				c8.09,10.55,16.41,21.01,23.48,32.24c20.85,33.09,32.94,69.36,37.23,108.19C532.14,343.16,532.38,352.65,532.7,357.7z"/>
			<path d="M76.75,219.13c-3.79-0.1-6.72-1.72-8.45-5.13c-1.94-3.82-1.49-7.57,1.26-10.74c7.54-8.69,14.77-17.72,22.94-25.79
				c34.3-33.94,75.14-56.31,122.06-67.55c2.16-0.52,4.54-0.77,6.72-0.46c4.21,0.6,7.36,4.62,7.49,8.92c0.14,4.68-3.01,8.35-7.9,9.82
				c-11.91,3.6-24.04,6.68-35.6,11.21c-40.09,15.72-73.19,41.01-99.85,74.77C82.48,217.9,80.29,219.14,76.75,219.13z"/>
			<path class="st0" d="M109.32,575.27c0.96-6.22,1.84-11.96,2.75-17.7c2.97-18.69,5.95-37.38,8.92-56.08
				c0.6-3.77-0.32-7-2.78-10.02c-22.13-27.18-36.1-58.12-41.54-92.72C70.85,361.76,75.22,325.88,90,291.4
				c21.24-49.55,57.3-84.08,107-104.37c28.46-11.62,58.22-15.84,88.83-12.97c55.22,5.18,100.4,29.56,135.31,72.49
				c20.01,24.6,32.68,52.94,38.6,84.09c2.03,10.68,3.72,21.59,3.9,32.42c0.58,35.4-7.09,69.03-24.75,99.93
				c-27.82,48.68-68.91,80.43-123.37,94.08c-43.21,10.83-85.39,6.74-126.15-11.24c-4.53-2-8.52-2.04-13.04-0.01
				c-20.98,9.41-42.07,18.61-63.11,27.88C112.13,574.18,111.02,574.59,109.32,575.27z M286.99,315.77
				c-0.81-24.72-1.25-41.87-1.95-59.01c-0.84-20.47-16.85-34.13-36.76-31.59c-18.3,2.33-30.06,20.17-25.7,39.54
				c6.82,30.27,13.97,60.46,20.87,90.71c4.71,20.67,9.18,41.39,13.87,62.06c2.1,9.27,9.52,14.72,18.25,13.74
				c9.11-1.02,14.97-7.88,14.72-17.74c-0.47-18.44-1.1-36.87-1.74-55.3C287.98,341.51,287.33,324.85,286.99,315.77z M280.89,443.95
				c-15.65,0.07-27.55,12.23-27.49,28.08c0.06,15.1,12.47,27.48,27.54,27.47c15.35-0.01,28.13-12.69,28.02-27.82
				C308.86,456.27,296.32,443.88,280.89,443.95z"/>
			<path class="st1" d="M286.99,315.77c0.34,9.08,0.99,25.74,1.56,42.4c0.63,18.43,1.27,36.86,1.74,55.3
				c0.25,9.86-5.61,16.71-14.72,17.74c-8.74,0.98-16.15-4.47-18.25-13.74c-4.69-20.67-9.16-41.39-13.87-62.06
				c-6.9-30.25-14.05-60.45-20.87-90.71c-4.36-19.37,7.4-37.21,25.7-39.54c19.91-2.54,35.92,11.12,36.76,31.59
				C285.74,273.89,286.18,291.04,286.99,315.77z"/>
			<path class="st1" d="M280.89,443.95c15.43-0.07,27.97,12.32,28.08,27.73c0.1,15.12-12.67,27.81-28.02,27.82
				c-15.07,0.01-27.48-12.37-27.54-27.47C253.34,456.18,265.24,444.02,280.89,443.95z"/>
		</g>
	</g>
</g>
</svg>
